name C:\Users\antoi\Documents\MyRepositories\upper-imu-dc\Results\main_tracking\Case_71\SHRUG01_angularVelocities_bodyFrame.mot
datacolumns 4
datarows 117
range 0.71000000 1.87000000
endheader 
time	radius_imu_x	radius_imu_y	radius_imu_z	
          0.71000000	         -0.02255688	          0.34267975	         -0.03391970	
          0.72000000	         -0.02260859	          0.33987204	         -0.03415106	
          0.73000000	         -0.02033654	          0.33433800	         -0.03096298	
          0.74000000	         -0.01713251	          0.32480778	         -0.02703108	
          0.75000000	         -0.01346792	          0.31063210	         -0.02334844	
          0.76000000	         -0.00951459	          0.29159451	         -0.02032575	
          0.77000000	         -0.00536010	          0.26788085	         -0.01814885	
          0.78000000	         -0.00110386	          0.24003722	         -0.01692551	
          0.79000000	          0.00313677	          0.20888444	         -0.01674258	
          0.80000000	          0.00722568	          0.17542384	         -0.01768439	
          0.81000000	          0.01100572	          0.14076708	         -0.01983165	
          0.82000000	          0.01431430	          0.10602884	         -0.02325825	
          0.83000000	          0.01698569	          0.07224220	         -0.02802081	
          0.84000000	          0.01885480	          0.04031515	         -0.03414803	
          0.85000000	          0.01976006	          0.01099486	         -0.04163286	
          0.86000000	          0.01954638	         -0.01514390	         -0.05042504	
          0.87000000	          0.01806451	         -0.03768147	         -0.06042530	
          0.88000000	          0.01516871	         -0.05632015	         -0.07148115	
          0.89000000	          0.01071741	         -0.07085629	         -0.08338518	
          0.90000000	          0.00457361	         -0.08114361	         -0.09587900	
          0.91000000	         -0.00339080	         -0.08706549	         -0.10866247	
          0.92000000	         -0.01328551	         -0.08852903	         -0.12140666	
          0.93000000	         -0.02519166	         -0.08547186	         -0.13377180	
          0.94000000	         -0.03915034	         -0.07788169	         -0.14542848	
          0.95000000	         -0.05515231	         -0.06581728	         -0.15607977	
          0.96000000	         -0.07313050	         -0.04943594	         -0.16548050	
          0.97000000	         -0.09295703	         -0.02902943	         -0.17345024	
          0.98000000	         -0.11444585	         -0.00505069	         -0.17987927	
          0.99000000	         -0.13736178	          0.02188716	         -0.18472779	
          1.00000000	         -0.16143467	          0.05105193	         -0.18802012	
          1.01000000	         -0.18637581	          0.08167376	         -0.18983675	
          1.02000000	         -0.21189326	          0.11305296	         -0.19030649	
          1.03000000	         -0.23770325	          0.14466746	         -0.18959939	
          1.04000000	         -0.26353613	          0.17624425	         -0.18791954	
          1.05000000	         -0.28913774	          0.20776823	         -0.18549594	
          1.06000000	         -0.31426877	          0.23942735	         -0.18257024	
          1.07000000	         -0.33870501	          0.27151722	         -0.17938103	
          1.08000000	         -0.36223968	          0.30433507	         -0.17614652	
          1.09000000	         -0.38468709	          0.33808534	         -0.17304770	
          1.10000000	         -0.40588571	          0.37280827	         -0.17021474	
          1.11000000	         -0.42569931	          0.40833346	         -0.16771828	
          1.12000000	         -0.44401592	          0.44425820	         -0.16556650	
          1.13000000	         -0.46074567	          0.47995441	         -0.16370747	
          1.14000000	         -0.47581835	          0.51461117	         -0.16203597	
          1.15000000	         -0.48918085	          0.54731603	         -0.16040447	
          1.16000000	         -0.50079390	          0.57716467	         -0.15863789	
          1.17000000	         -0.51062781	          0.60337611	         -0.15655164	
          1.18000000	         -0.51865591	          0.62539012	         -0.15397131	
          1.19000000	         -0.52484426	          0.64292422	         -0.15075303	
          1.20000000	         -0.52914183	          0.65598536	         -0.14679967	
          1.21000000	         -0.53147162	          0.66483710	         -0.14207091	
          1.22000000	         -0.53172665	          0.66992932	         -0.13658448	
          1.23000000	         -0.52977907	          0.67181354	         -0.13040612	
          1.24000000	         -0.52549876	          0.67106636	         -0.12363863	
          1.25000000	         -0.51876891	          0.66820943	         -0.11641038	
          1.26000000	         -0.50948517	          0.66365076	         -0.10886006	
          1.27000000	         -0.49756467	          0.65763322	         -0.10113046	
          1.28000000	         -0.48299925	          0.65022901	         -0.09335847	
          1.29000000	         -0.46592148	          0.64138814	         -0.08569496	
          1.30000000	         -0.44658438	          0.63094645	         -0.07832958	
          1.31000000	         -0.42527483	          0.61872923	         -0.07135979	
          1.32000000	         -0.40228437	          0.60461229	         -0.06476463	
          1.33000000	         -0.37794151	          0.58854918	         -0.05848148	
          1.34000000	         -0.35262329	          0.57061218	         -0.05246337	
          1.35000000	         -0.32672372	          0.55095551	         -0.04670306	
          1.36000000	         -0.30065466	          0.52980593	         -0.04119971	
          1.37000000	         -0.27478632	          0.50747325	         -0.03599626	
          1.38000000	         -0.24945087	          0.48413236	         -0.03114004	
          1.39000000	         -0.22485643	          0.46017333	         -0.02669495	
          1.40000000	         -0.20131926	          0.43552464	         -0.02267420	
          1.41000000	         -0.17901494	          0.41022860	         -0.01910948	
          1.42000000	         -0.15800315	          0.38432795	         -0.01602913	
          1.43000000	         -0.13843248	          0.35738869	         -0.01339113	
          1.44000000	         -0.12035789	          0.32904809	         -0.01116842	
          1.45000000	         -0.10383412	          0.29889458	         -0.00932083	
          1.46000000	         -0.08888947	          0.26666983	         -0.00780441	
          1.47000000	         -0.07552214	          0.23233050	         -0.00658012	
          1.48000000	         -0.06371591	          0.19605702	         -0.00560810	
          1.49000000	         -0.05344001	          0.15824575	         -0.00484440	
          1.50000000	         -0.04464450	          0.11942862	         -0.00424606	
          1.51000000	         -0.03725574	          0.08020832	         -0.00377083	
          1.52000000	         -0.03117477	          0.04121125	         -0.00337330	
          1.53000000	         -0.02627716	          0.00305401	         -0.00300068	
          1.54000000	         -0.02241363	         -0.03367139	         -0.00258946	
          1.55000000	         -0.01941207	         -0.06840097	         -0.00206465	
          1.56000000	         -0.01708236	         -0.10059364	         -0.00134157	
          1.57000000	         -0.01522360	         -0.12972870	         -0.00032992	
          1.58000000	         -0.01363353	         -0.15531521	          0.00106066	
          1.59000000	         -0.01211839	         -0.17691787	          0.00291399	
          1.60000000	         -0.01050092	         -0.19419665	          0.00530064	
          1.61000000	         -0.00862505	         -0.20695553	          0.00827241	
          1.62000000	         -0.00635591	         -0.21518826	          0.01185838	
          1.63000000	         -0.00357611	         -0.21910430	          0.01606318	
          1.64000000	         -0.00017987	         -0.21913049	          0.02086714	
          1.65000000	          0.00393207	         -0.21589094	          0.02622850	
          1.66000000	          0.00885523	         -0.21017018	          0.03208710	
          1.67000000	          0.01468023	         -0.20286545	          0.03836869	
          1.68000000	          0.02148832	         -0.19493382	          0.04498944	
          1.69000000	          0.02934475	         -0.18733824	          0.05185983	
          1.70000000	          0.03829182	         -0.18099434	          0.05888800	
          1.71000000	          0.04834275	         -0.17671962	          0.06598277	
          1.72000000	          0.05947727	         -0.17518781	          0.07305679	
          1.73000000	          0.07163921	         -0.17689061	          0.08003049	
          1.74000000	          0.08473640	         -0.18210807	          0.08683773	
          1.75000000	          0.09864255	         -0.19088769	          0.09343349	
          1.76000000	          0.11320052	         -0.20303128	          0.09980355	
          1.77000000	          0.12822626	         -0.21808811	          0.10597413	
          1.78000000	          0.14351324	         -0.23535526	          0.11201847	
          1.79000000	          0.15883726	         -0.25389054	          0.11805700	
          1.80000000	          0.17396185	         -0.27254706	          0.12424882	
          1.81000000	          0.18864389	         -0.29003881	          0.13077518	
          1.82000000	          0.20263982	         -0.30504044	          0.13781778	
          1.83000000	          0.21571205	         -0.31631821	          0.14553626	
          1.84000000	          0.22763648	         -0.32287761	          0.15404885	
          1.85000000	          0.23821197	         -0.32411138	          0.16341759	
          1.86000000	          0.24727376	         -0.31992458	          0.17363737	
          1.87000000	          0.25471185	         -0.31082381	          0.18462469	
